# AST/ASF file generated using VICON BodyLanguage
# -----------------------------------------------
:version 1.10
:name VICON
:units
  mass 1.0
  length 0.45
  angle deg
:documentation
   .ast/.asf automatically generated from VICON data using
   VICON BodyBuilder and BodyLanguage model FoxedUp or BRILLIANT.MOD
:root
   order TX TY TZ RX RY RZ
   axis XYZ
   position 0 0 0  
   orientation 0 0 0 
:bonedata
  begin
     id 1 
     name lhipjoint
     direction 0.537252 -0.787203 0.302774 
     length 2.29576 
     axis 0 0 0  XYZ
  end
  begin
     id 2 
     name lfemur
     direction 0.34202 -0.939693 0  
     length 7.31114  
     axis 0 0 20  XYZ
    dof rx ry rz
    limits (-160.0 20.0)
           (-70.0 70.0)
           (-60.0 70.0)
  end
  begin
     id 3 
     name ltibia
     direction 0.34202 -0.939693 0   
     length 8.36008   
     axis 0 0 20   XYZ
    dof rx
    limits (-10.0 170.0)
  end
  begin
     id 4 
     name lfoot
     direction 0.0969116 -0.266263 0.959016   
     length 2.16704   
     axis -90 7.62852e-016 20   XYZ
    dof rx rz
    limits (-45.0 90.0)
           (-70.0 20.0)
  end
  begin
     id 5 
     name ltoes
     direction 1.53563e-011 -4.21779e-011 1   
     length 1.08338   
     axis -90 7.62852e-016 20   XYZ
    dof rx
    limits (-90.0 20.0)
  end
  begin
     id 6 
     name rhipjoint
     direction -0.588228 -0.754791 0.290308   
     length 2.39434  
     axis 0 0 0  XYZ 
  end
  begin
     id 7 
     name rfemur
     direction -0.34202 -0.939693 0   
     length 7.45207   
     axis 0 0 -20   XYZ
    dof rx ry rz
    limits (-160.0 20.0)
           (-70.0 70.0)
           (-70.0 60.0)
  end
  begin
     id 8 
     name rtibia
     direction -0.34202 -0.939693 0   
     length 8.03565   
     axis 0 0 -20   XYZ
    dof rx
    limits (-10.0 170.0)
 end
 begin
     id 9 
     name rfoot
     direction -0.107009 -0.294004 0.949795   
     length 2.11509  
     axis -90 -7.62852e-016 -20   XYZ
    dof rx rz
    limits (-45.0 90.0)
           (-20.0 70.0)
  end
  begin
     id 10 
     name rtoes
     direction -1.53533e-011 -4.22004e-011 1   
     length 1.05493   
     axis -90 -7.62852e-016 -20   XYZ
    dof rx
    limits (-90.0 20.0)
  end
  begin
     id 11 
     name lowerback
     direction -0.0115208 0.997969 -0.0626515   
     length 2.03153   
     axis 0 0 0   XYZ
    dof rx ry rz
    limits (-20.0 45.0)
           (-30.0 30.0)
           (-30.0 30.0)
  end
  begin
     id 12 
     name upperback
     direction -0.00423475 0.999974 -0.00583614   
     length 2.03619   
     axis 0 0 0   XYZ
    dof rx ry rz
    limits (-20.0 45.0)
           (-30.0 30.0)
           (-30.0 30.0)
  end
  begin
     id 13 
     name thorax
     direction 0.00289429 0.999728 0.0231573   
     length 2.03921   
     axis 0 0 0   XYZ
    dof rx ry rz
    limits (-20.0 45.0)
           (-30.0 30.0)
           (-30.0 30.0)
  end
  begin
     id 14 
     name lowerneck
     direction 0.0188995 0.987777 0.154721   
     length 1.78836   
     axis 0 0 0   XYZ
    dof rx ry rz
    limits (-20.0 45.0)
           (-30.0 30.0)
           (-30.0 30.0)
  end
  begin
     id 15 
     name upperneck
     direction -0.00612612 0.992995 -0.118   
     length 1.81789   
     axis 0 0 0   XYZ
    dof rx ry rz
    limits (-20.0 45.0)
           (-30.0 30.0)
           (-30.0 30.0)
  end
  begin
     id 16
     name head
     direction -0.00420226 0.998397 -0.0564482  
     length 1.82234  
     axis 0 0 0   XYZ
    dof rx ry rz
    limits (-20.0 45.0)
           (-30.0 30.0)
           (-30.0 30.0)
  end
  begin
     id 17 
     name lclavicle
     direction 0.916488 0.396539 0.0529676  
     length 3.51732  
     axis 0 0 0   XYZ
    dof ry rz
    limits (-20.0 10.0)
           (0.0 20.0)
  end
  begin
     id 18 
     name lhumerus
     direction 1 -4.4896e-011 8.36962e-028   
     length 5.45077   
     axis 180 -30 -90   XYZ
    dof rx ry rz
    limits (-60.0 90.0)
           (-90.0 90.0)
           (-90.0 90.0)
  end
  begin
     id 19
     name lradius
     direction 1 -4.48962e-011 3.01407e-027   
     length 3.05488   
     axis 180 -30 -90   XYZ
    dof rx
    limits (-10.0 170.0)
  end
  begin
     id 20
     name lwrist
     direction 1 -4.49002e-011 4.72961e-027   
     length 1.52744   
     axis -2.72261e-015 90 90   XYZ
    dof ry
    limits (-180.0 0.0)
 end
  begin
     id 21 
     name lhand
     direction 1 -4.4899e-011 9.45681e-027   
     length 0.638818   
     axis -6.0311e-015 90 90   XYZ
    dof rx rz
    limits (-90.0 90.0)
           (-45.0 45.0)
  end
  begin
     id 22 
     name lfingers
     direction 1 -4.48871e-011 1.88632e-026   
     length 0.515032   
     axis -1.20625e-014 90 90   XYZ
    dof rx
    limits (0.0 90.0)
  end
  begin
     id 23
     name lthumb
     direction 0.707107 -6.34964e-011 0.707107   
     length 0.739485   
     axis -90 45 6.32835e-014   XYZ
    dof rx rz
    limits (-45.0 45.0)
           (-45.0 45.0)
  end
  begin
     id 24 
     name rclavicle
     direction -0.949427 0.303202 0.0815894   
     length 3.76167  
     axis 0 0 0   XYZ 
    dof ry rz
    limits (-10.0 20.0)
           (-20.0 0.0)
  end
  begin
     id 25 
     name rhumerus
     direction -1 -4.48971e-011 -6.43969e-018  
     length 4.88702   
     axis 180 30 90   XYZ
    dof rx ry rz
    limits (-90.0 60.0)
           (-90.0 90.0)
           (-90.0 90.0)
  end
  begin
     id 26 
     name rradius
     direction -1 -4.48987e-011 5.46662e-027   
     length 3.22603   
     axis 180 30 90   XYZ
    dof rx
    limits (-10.0 170.0)
  end
  begin
     id 27 
     name rwrist
     direction -1 -4.48956e-011 4.72476e-027   
     length 1.61302   
     axis -2.72261e-015 -90 -90   XYZ
    dof ry
    limits (-180.0 0.0)
  end
  begin
     id 28
     name rhand
     direction -1 -4.4889e-011 9.43571e-027   
     length 0.716293   
     axis -6.0311e-015 -90 -90   XYZ
    dof rx rz
    limits (-90.0 90.0)
           (-45.0 45.0)
  end
  begin
     id 29
     name rfingers
     direction -1 -4.48887e-011 1.88701e-026   
     length 0.577494   
     axis -1.20625e-014 -90 -90   XYZ
    dof rx
    limits (0.0 90.0)
  end
  begin
     id 30
     name rthumb
     direction -0.707107 -6.34825e-011 0.707107   
     length 0.829169   
     axis -90 -45 -6.32835e-014   XYZ
    dof rx rz
    limits (-45.0 45.0)
           (-45.0 45.0)
  end
:hierarchy
  begin
    root lhipjoint rhipjoint lowerback
    lhipjoint lfemur
    lfemur ltibia
    ltibia lfoot
    lfoot ltoes
    rhipjoint rfemur
    rfemur rtibia
    rtibia rfoot
    rfoot rtoes
    lowerback upperback
    upperback thorax
    thorax lowerneck lclavicle rclavicle
    lowerneck upperneck
    upperneck head
    lclavicle lhumerus
    lhumerus lradius
    lradius lwrist
    lwrist lhand lthumb
    lhand lfingers
    rclavicle rhumerus
    rhumerus rradius
    rradius rwrist
    rwrist rhand rthumb
    rhand rfingers
  end

#!OML:ASF F:\VICON\USERDATA\INSTALL\rory3\rory3.ASF
:FULLY-SPECIFIED
:DEGREES
602
root 1.73238 18.4753 -0.000880325 15.3386 92.6214 4.72251
lowerback -9.09153 -1.27936 0.408024
upperback -3.23834 -1.64723 0.433332
thorax 1.74046 -0.779203 0.0478204
lowerneck -14.6635 -2.77298 -0.812794
upperneck 19.0017 -3.63142 0.592967
head 8.35086 -1.65855 -0.0738301
rclavicle 7.66292e-015 -5.76476e-015
rhumerus -30.67 -7.38724 -85.7337
rradius 38.6751
rwrist -154.663
rhand -23.3911 -6.54684
rfingers 7.12502
rthumb 3.06536 -36.5046
lclavicle 7.66292e-015 -5.76476e-015
lhumerus -36.5304 -14.8251 92.6536
lradius 36.6575
lwrist 13.318
lhand -9.05574 27.7216
lfingers 7.12502
lthumb 16.8928 57.0069
rfemur -2.94187 -13.2465 17.5004
rtibia -7.95139e-016
rfoot -7.04181 0.535213
rtoes -16.4379
lfemur -12.9826 8.08273 -17.7495
ltibia 19.1959
lfoot -15.8282 -4.05868
ltoes -27.0993
603
root 1.73569 18.4742 0.00370962 14.4142 92.683 3.80384
lowerback -9.11469 -1.32645 0.331987
upperback -3.23607 -1.70345 0.443125
thorax 1.75804 -0.806844 0.0941603
lowerneck -14.6713 -2.7799 -0.822377
upperneck 19.0239 -3.63594 0.580391
head 8.35974 -1.66237 -0.0772473
rclavicle 1.53451e-014 5.46658e-016
rhumerus -30.713 -7.43609 -85.6746
rradius 38.662
rwrist -154.743
rhand -23.4152 -6.84148
rfingers 7.12502
rthumb 3.04216 -36.7995
lclavicle 1.53451e-014 5.46658e-016
lhumerus -36.5033 -14.8573 92.6339
lradius 36.629
lwrist 13.3519
lhand -9.22007 27.6122
lfingers 7.12502
lthumb 16.7346 56.911
rfemur -2.89714 -13.3158 17.4812
rtibia 7.95139e-015
rfoot -7.05948 0.551186
rtoes -16.4336
lfemur -12.959 8.134 -17.763
ltibia 19.1667
lfoot -15.8172 -4.16997
ltoes -27.2869
604
root 1.7384 18.4737 0.00515575 13.6648 92.7043 3.0684
lowerback -9.11837 -1.35272 0.295493
upperback -3.23648 -1.73512 0.441033
thorax 1.76069 -0.822514 0.109091
lowerneck -14.7008 -2.79304 -0.856602
upperneck 19.0501 -3.652 0.608231
head 8.37527 -1.66918 -0.0648138
rclavicle -8.73299e-015 -2.93207e-015
rhumerus -30.7406 -7.56831 -85.6324
rradius 38.6141
rwrist -154.646
rhand -23.3409 -6.96583
rfingers 7.12502
rthumb 3.11391 -36.9228
lclavicle -8.73299e-015 -2.93207e-015
lhumerus -36.5619 -15.0287 92.7342
lradius 36.6578
lwrist 14.003
lhand -9.53901 27.4928
lfingers 7.12502
lthumb 16.4275 56.8172
rfemur -2.86215 -13.3444 17.4473
rtibia 7.95139e-015
rfoot -7.0921 0.560274
rtoes -16.5737
lfemur -12.9246 8.18452 -17.7886
ltibia 19.1451
lfoot -15.8117 -4.25205
ltoes -27.3386
605
root 1.73815 18.4734 0.00536146 13.4833 92.6896 2.89856
lowerback -9.09571 -1.35846 0.29097
upperback -3.2423 -1.74257 0.456984
thorax 1.74283 -0.826185 0.127921
lowerneck -14.7126 -2.81087 -0.895013
upperneck 19.0637 -3.66741 0.607717
head 8.38284 -1.67914 -0.0607279
rclavicle -6.41527e-015 4.57205e-015
rhumerus -30.7943 -7.61604 -85.5645
rradius 38.617
rwrist -154.647
rhand -23.3078 -7.06487
rfingers 7.12502
rthumb 3.14588 -37.0214
lclavicle -6.41527e-015 4.57205e-015
lhumerus -36.6681 -15.3732 93.017
lradius 36.7179
lwrist 15.3111
lhand -10.0721 27.5326
lfingers 7.12502
lthumb 15.9142 56.8988
rfemur -2.85488 -13.3319 17.4299
rtibia -7.95139e-016
rfoot -7.10281 0.568573
rtoes -16.3683
lfemur -12.8996 8.15976 -17.7965
ltibia 19.1261
lfoot -15.8064 -4.23526
ltoes -27.2588
606
root 1.73791 18.4738 0.00475127 13.5429 92.6488 2.95878
lowerback -9.10083 -1.34437 0.310558
upperback -3.24797 -1.72537 0.45957
thorax 1.73926 -0.817571 0.12135
lowerneck -14.6641 -2.81779 -0.935399
upperneck 19.0262 -3.67698 0.652418
head 8.36329 -1.68251 -0.0392551
rclavicle -2.85941e-015 -1.10325e-014
rhumerus -30.8708 -7.58864 -85.5309
rradius 38.6525
rwrist -154.725
rhand -23.2229 -6.93113
rfingers 7.12502
rthumb 3.22784 -36.8864
lclavicle -2.85941e-015 -1.10325e-014
lhumerus -36.7136 -15.5975 93.157
lradius 36.7029
lwrist 15.9984
lhand -10.3942 27.4665
lfingers 7.12502
lthumb 15.604 56.8571
rfemur -2.86156 -13.2916 17.4227
rtibia 8.74653e-015
rfoot -7.08526 0.545037
rtoes -16.3574
lfemur -12.8743 8.1229 -17.8002
ltibia 19.103
lfoot -15.8395 -4.17962
ltoes -27.1905
607
root 1.73815 18.474 0.00586219 13.5742 92.6358 2.99108
lowerback -9.10432 -1.34592 0.32762
upperback -3.24672 -1.7288 0.452026
thorax 1.74173 -0.819388 0.103544
lowerneck -14.6045 -2.81844 -0.931618
upperneck 18.951 -3.68568 0.682861
head 8.32788 -1.68441 -0.0293013
rclavicle 2.30169e-014 6.16232e-015
rhumerus -30.9452 -7.59984 -85.5282
rradius 38.7177
rwrist -154.698
rhand -23.2934 -6.95697
rfingers 7.12502
rthumb 3.15975 -36.9133
lclavicle 2.30169e-014 6.16232e-015
lhumerus -36.5636 -15.3711 92.9475
lradius 36.5314
lwrist 15.2254
lhand -10.1196 27.3479
lfingers 7.12502
lthumb 15.8685 56.7176
rfemur -2.8582 -13.2781 17.4251
rtibia 0
rfoot -7.10403 0.55759
rtoes -16.3333
lfemur -12.8562 8.1774 -17.7933
ltibia 19.0802
lfoot -15.7963 -4.22704
ltoes -27.1184
608
root 1.739 18.4731 0.00727155 13.4525 92.6205 2.91083
lowerback -9.06702 -1.34564 0.328592
upperback -3.2424 -1.72861 0.441421
thorax 1.7253 -0.819602 0.0929081
lowerneck -14.5788 -2.84694 -0.888553
upperneck 18.9174 -3.72928 0.653383
head 8.31076 -1.70555 -0.0505785
rclavicle 2.70274e-015 8.54774e-015
rhumerus -31.0056 -7.74629 -85.4999
rradius 38.7102
rwrist -154.564
rhand -23.3631 -6.9798
rfingers 7.12502
rthumb 3.09246 -36.9371
lclavicle 2.70274e-015 8.54774e-015
lhumerus -36.482 -15.1726 92.7762
lradius 36.4413
lwrist 14.555
lhand -9.86004 27.284
lfingers 7.12502
lthumb 16.1184 56.6337
rfemur -2.80831 -13.2618 17.4126
rtibia 3.97569e-015
rfoot -7.12798 0.561301
rtoes -16.4572
lfemur -12.7984 8.25819 -17.7903
ltibia 19.0574
lfoot -15.7534 -4.29383
ltoes -27.0881
609
root 1.73944 18.4723 0.00832055 13.3038 92.5606 2.78951
lowerback -9.06847 -1.33426 0.316164
upperback -3.21668 -1.71338 0.432454
thorax 1.75279 -0.812364 0.0917991
lowerneck -14.588 -2.864 -0.861213
upperneck 18.8841 -3.75799 0.64456
head 8.30072 -1.71869 -0.0612243
rclavicle 9.54296e-015 2.08724e-015
rhumerus -30.988 -7.94865 -85.4472
rradius 38.6495
rwrist -154.422
rhand -23.242 -7.18769
rfingers 7.12502
rthumb 3.20937 -37.1433
lclavicle 9.54296e-015 2.08724e-015
lhumerus -36.4562 -15.1951 92.7595
lradius 36.415
lwrist 14.5862
lhand -10.0007 27.2961
lfingers 7.12502
lthumb 15.9829 56.6567
rfemur -2.7815 -13.2031 17.3915
rtibia 0
rfoot -7.11578 0.547979
rtoes -16.3647
lfemur -12.7609 8.33476 -17.8028
ltibia 19.0342
lfoot -15.7241 -4.30331
ltoes -27.1011
610
root 1.74069 18.4731 0.0080592 13.2757 92.5201 2.76456
lowerback -9.10748 -1.33746 0.347787
upperback -3.1956 -1.72094 0.4204
thorax 1.79473 -0.816387 0.0596162
lowerneck -14.5797 -2.86275 -0.900882
upperneck 18.8194 -3.76503 0.726658
head 8.28009 -1.71752 -0.0276041
rclavicle -3.12203e-015 -2.6339e-015
rhumerus -30.9896 -7.99126 -85.4383
rradius 38.6571
rwrist -154.381
rhand -23.0902 -7.31215
rfingers 7.12502
rthumb 3.35596 -37.2655
lclavicle -3.12203e-015 -2.6339e-015
lhumerus -36.4516 -15.1357 92.712
lradius 36.4096
lwrist 14.5601
lhand -10.0701 27.4414
lfingers 7.12502
lthumb 15.9161 56.8074
rfemur -2.77449 -13.1639 17.3808
rtibia 7.95139e-016
rfoot -7.11952 0.56606
rtoes -16.1704
lfemur -12.7432 8.29867 -17.8083
ltibia 19.0205
lfoot -15.7546 -4.20759
ltoes -27.1463
611
root 1.74135 18.4735 0.00906812 12.9701 92.5026 2.46304
lowerback -9.11903 -1.36491 0.308813
upperback -3.19636 -1.75468 0.450328
thorax 1.80241 -0.832923 0.108536
lowerneck -14.4653 -2.86538 -0.922193
upperneck 18.6704 -3.75931 0.70256
head 8.20943 -1.7214 -0.0286869
rclavicle 2.51356e-015 -1.799e-014
rhumerus -31.0332 -7.93575 -85.3987
rradius 38.6925
rwrist -154.465
rhand -23.0934 -7.18062
rfingers 7.12502
rthumb 3.35289 -37.134
lclavicle 2.51356e-015 -1.799e-014
lhumerus -36.4445 -15.0069 92.7
lradius 36.3771
lwrist 14.5091
lhand -10.0567 27.5672
lfingers 7.12502
lthumb 15.9291 56.9321
rfemur -2.77093 -13.1486 17.3713
rtibia 1.90833e-014
rfoot -7.11756 0.580199
rtoes -16.215
lfemur -12.7412 8.30976 -17.8237
ltibia 19.0313
lfoot -15.7861 -4.14335
ltoes -27.3606
612
root 1.74125 18.4734 0.00936164 13.6032 92.4722 3.09227
lowerback -9.12936 -1.37818 0.32694
upperback -3.19244 -1.77469 0.477069
thorax 1.81246 -0.842853 0.123529
lowerneck -14.3573 -2.86563 -0.915697
upperneck 18.5175 -3.7593 0.689621
head 8.13842 -1.72484 -0.0313174
rclavicle -1.36553e-015 7.95139e-015
rhumerus -31.0816 -7.86307 -85.391
rradius 38.739
rwrist -154.501
rhand -23.1189 -7.04226
rfingers 7.12502
rthumb 3.32827 -36.996
lclavicle -1.36553e-015 7.95139e-015
lhumerus -36.3282 -14.7055 92.5053
lradius 36.2485
lwrist 13.753
lhand -9.75714 27.4844
lfingers 7.12502
lthumb 16.2175 56.826
rfemur -2.78985 -13.112 17.4004
rtibia -2.38542e-015
rfoot -7.10725 0.575915
rtoes -16.1816
lfemur -12.7499 8.3055 -17.7931
ltibia 19.0472
lfoot -15.7576 -4.1523
ltoes -27.1058
613
root 1.74198 18.4736 0.00997437 14.5121 92.4581 3.99736
lowerback -9.13995 -1.40219 0.332101
upperback -3.1897 -1.80841 0.531751
thorax 1.82275 -0.859433 0.173165
lowerneck -14.354 -2.86209 -0.9484
upperneck 18.4907 -3.74046 0.657096
head 8.12869 -1.72207 -0.0344094
rclavicle 1.3466e-015 1.98785e-015
rhumerus -31.0754 -7.74182 -85.3605
rradius 38.7396
rwrist -154.503
rhand -23.2057 -6.86677
rfingers 7.12502
rthumb 3.24443 -36.8218
lclavicle 1.3466e-015 1.98785e-015
lhumerus -36.2281 -14.3125 92.3196
lradius 36.1241
lwrist 12.9545
lhand -9.54837 27.4914
lfingers 7.12502
lthumb 16.4185 56.8166
rfemur -2.7958 -13.0876 17.4481
rtibia -1.19271e-014
rfoot -7.09436 0.566107
rtoes -16.4007
lfemur -12.7506 8.29235 -17.747
ltibia 19.0725
lfoot -15.768 -4.14274
ltoes -27.008
614
root 1.7428 18.474 0.0101892 14.6009 92.4409 4.08323
lowerback -9.15527 -1.41152 0.349029
upperback -3.19135 -1.82218 0.530226
thorax 1.8289 -0.86627 0.160297
lowerneck -14.3741 -2.85704 -0.97747
upperneck 18.5077 -3.73478 0.695538
head 8.13936 -1.71728 -0.016685
rclavicle 1.49472e-015 -3.47873e-015
rhumerus -31.0765 -7.82175 -85.3362
rradius 38.715
rwrist -154.424
rhand -23.3065 -6.86214
rfingers 7.12502
rthumb 3.14713 -36.8187
lclavicle 1.49472e-015 -3.47873e-015
lhumerus -36.2012 -14.2453 92.2817
lradius 35.9828
lwrist 12.8567
lhand -9.52803 27.4887
lfingers 7.12502
lthumb 16.4381 56.8122
rfemur -2.79608 -13.07 17.4499
rtibia -1.19271e-014
rfoot -7.09956 0.569956
rtoes -16.082
lfemur -12.7383 8.23472 -17.7404
ltibia 19.0797
lfoot -15.8372 -4.10745
ltoes -27.0352
615
root 1.74329 18.4735 0.0111395 15.5122 92.4138 5.00495
lowerback -9.17217 -1.41287 0.40197
upperback -3.18116 -1.82905 0.530266
thorax 1.84706 -0.869893 0.129342
lowerneck -14.3417 -2.85791 -0.983869
upperneck 18.4647 -3.74213 0.730777
head 8.12009 -1.71834 -0.00397762
rclavicle -1.33865e-014 -2.28602e-015
rhumerus -31.0756 -7.90131 -85.3434
rradius 38.7198
rwrist -154.328
rhand -23.2906 -6.80045
rfingers 7.12502
rthumb 3.16243 -36.7567
lclavicle -1.33865e-014 -2.28602e-015
lhumerus -36.1588 -14.1665 92.2266
lradius 35.8494
lwrist 12.7575
lhand -9.48622 27.57
lfingers 7.12502
lthumb 16.4784 56.8902
rfemur -2.78883 -13.0322 17.4881
rtibia 3.18055e-015
rfoot -7.10076 0.571243
rtoes -16.0781
lfemur -12.7329 8.24686 -17.6977
ltibia 19.0971
lfoot -15.8339 -4.08616
ltoes -27.1335
616
root 1.74168 18.4724 0.0124554 13.875 92.368 3.37607
lowerback -9.15084 -1.41668 0.319374
upperback -3.17741 -1.82652 0.501512
thorax 1.84089 -0.868741 0.146759
lowerneck -14.3244 -2.85502 -0.933448
upperneck 18.4275 -3.75208 0.740422
head 8.1038 -1.71912 -0.00964796
rclavicle 1.34326e-014 -3.97569e-015
rhumerus -31.0384 -8.00144 -85.3264
rradius 38.6586
rwrist -154.232
rhand -23.229 -6.93279
rfingers 7.12502
rthumb 3.22199 -36.8882
lclavicle 1.34326e-014 -3.97569e-015
lhumerus -36.1856 -14.3457 92.3327
lradius 35.754
lwrist 13.3812
lhand -9.67666 27.6191
lfingers 7.12502
lthumb 16.295 56.9545
rfemur -2.79231 -13.0043 17.4112
rtibia 0
rfoot -7.09796 0.518018
rtoes -16.0352
lfemur -12.7245 8.25223 -17.7762
ltibia 19.1092
lfoot -15.8442 -4.07039
ltoes -27.1814
